<?xml version="1.0" encoding="utf-8"?>
<svg width="103px" height="100px" viewBox="0 0 103 100" version="1.1" xmlns:xlink="http://www.w3.org/1999/xlink" xmlns="http://www.w3.org/2000/svg">
  <path d="M0 50C0 22.3858 23.0573 0 51.5 0C79.9427 0 103 22.3858 103 50C103 77.6142 79.9427 100 51.5 100C23.0573 100 0 77.6142 0 50Z" id="Oval" fill="#FFFFFF" fill-rule="evenodd" stroke="none" />
  <path d="M51.5 17C53.9856 17 56 19.0144 56 21.5L56 42.5C56 44.9856 53.9856 47 51.5 47L51.5 47C49.0144 47 47 44.9856 47 42.5L47 21.5C47 19.0144 49.0144 17 51.5 17Z" id="Rectangle" fill="#000000" stroke="none" />
  <path d="M39.8323 38.8323C39.8323 38.8323 33.4688 32.4688 33.4688 32.4688C29.9025 36.035 27.4739 40.5787 26.49 45.5252C25.5061 50.4717 26.011 55.5989 27.9411 60.2584C29.8711 64.9179 33.1395 68.9005 37.333 71.7025C41.5264 74.5045 46.4566 76 51.5 76C56.5434 76 61.4736 74.5045 65.667 71.7025C69.8605 68.9005 73.1289 64.9179 75.0589 60.2584C76.989 55.5989 77.4939 50.4717 76.51 45.5252C75.5261 40.5787 73.0975 36.035 69.5312 32.4688C69.5312 32.4688 63.1677 38.8323 63.1677 38.8323C65.4753 41.14 67.0468 44.0801 67.6835 47.2809C68.3202 50.4817 67.9934 53.7994 66.7445 56.8145C65.4957 59.8296 63.3807 62.4066 60.6672 64.2197C57.9537 66.0328 54.7635 67.0006 51.5 67.0006C48.2365 67.0006 45.0463 66.0328 42.3328 64.2197C39.6193 62.4066 37.5043 59.8296 36.2555 56.8145C35.0066 53.7994 34.6798 50.4817 35.3165 47.2809C35.9532 44.0801 37.5247 41.14 39.8323 38.8323Z" id="Oval" fill="#000000" fill-rule="evenodd" stroke="none" />
</svg>