<?xml version="1.0" encoding="utf-8"?>
<svg width="103px" height="100px" viewBox="0 0 103 100" version="1.1" xmlns:xlink="http://www.w3.org/1999/xlink" xmlns="http://www.w3.org/2000/svg">
  <defs>
    <filter filterUnits="userSpaceOnUse" color-interpolation-filters="sRGB" id="filter_1">
      <feFlood flood-opacity="0" result="BackgroundImageFix" />
      <feColorMatrix in="SourceAlpha" type="matrix" values="0 0 0 0 0 0 0 0 0 0 0 0 0 0 0 0 0 0 128 0" />
      <feOffset dx="0" dy="0" />
      <feGaussianBlur stdDeviation="2" />
      <feColorMatrix type="matrix" values="0 0 0 0 1 0 0 0 0 1 0 0 0 0 1 0 0 0 0 0" />
      <feBlend mode="normal" in2="BackgroundImageFix" result="effect0_dropShadow" />
      <feBlend mode="normal" in="SourceGraphic" in2="effect0_dropShadow" result="shape" />
    </filter>
    <filter filterUnits="userSpaceOnUse" color-interpolation-filters="sRGB" id="filter_2">
      <feFlood flood-opacity="0" result="BackgroundImageFix" />
      <feBlend mode="normal" in="SourceGraphic" in2="BackgroundImageFix" result="shape" />
      <feColorMatrix in="SourceAlpha" type="matrix" values="0 0 0 0 0 0 0 0 0 0 0 0 0 0 0 0 0 0 128 0" result="hardAlpha" />
      <feOffset dx="0" dy="0" />
      <feGaussianBlur stdDeviation="2" />
      <feComposite in2="hardAlpha" operator="arithmetic" k2="-1" k3="1" />
      <feColorMatrix type="matrix" values="0 0 0 0 1 0 0 0 0 1 0 0 0 0 1 0 0 0 0.49803922 0" />
      <feBlend mode="normal" in2="shape" result="effect0_innerShadow" />
    </filter>
    <path d="M39.8323 38.3323C39.8323 38.3323 33.4688 31.9688 33.4688 31.9688C29.9025 35.535 27.4739 40.0787 26.49 45.0252C25.5061 49.9717 26.011 55.0989 27.9411 59.7584C29.8711 64.4179 33.1395 68.4005 37.333 71.2025C41.5264 74.0045 46.4566 75.5 51.5 75.5C56.5434 75.5 61.4736 74.0045 65.667 71.2025C69.8605 68.4005 73.1289 64.4179 75.0589 59.7584C76.989 55.0989 77.4939 49.9717 76.51 45.0252C75.5261 40.0787 73.0975 35.535 69.5312 31.9688C69.5312 31.9688 63.1677 38.3323 63.1677 38.3323C65.4753 40.64 67.0468 43.5801 67.6835 46.7809C68.3202 49.9817 67.9934 53.2994 66.7445 56.3145C65.4957 59.3296 63.3807 61.9066 60.6672 63.7197C57.9537 65.5328 54.7635 66.5006 51.5 66.5006C48.2365 66.5006 45.0463 65.5328 42.3328 63.7197C39.6193 61.9066 37.5043 59.3296 36.2555 56.3145C35.0066 53.2994 34.6798 49.9817 35.3165 46.7809C35.9532 43.5801 37.5247 40.64 39.8323 38.3323Z" id="path_1" />
  </defs>
  <g id="Group">
    <path d="M0 50C0 22.3858 23.0573 0 51.5 0C79.9427 0 103 22.3858 103 50C103 77.6142 79.9427 100 51.5 100C23.0573 100 0 77.6142 0 50Z" id="Oval" fill="#000000" fill-rule="evenodd" stroke="none" />
    <path d="M51.5 17C53.9856 17 56 19.0144 56 21.5L56 42.5C56 44.9856 53.9856 47 51.5 47L51.5 47C49.0144 47 47 44.9856 47 42.5L47 21.5C47 19.0144 49.0144 17 51.5 17Z" id="Rectangle" fill="#FFFFFF" stroke="none" />
    <g id="Oval" filter="url(#filter_1)">
      <use stroke="none" fill="#FFFFFF" xlink:href="#path_1" fill-rule="evenodd" filter="url(#filter_2)" />
    </g>
  </g>
</svg>